<svg xmlns="http://www.w3.org/2000/svg" viewBox="0 0 144.0 121.0" width="144" height="121"><g transform="translate(0 0)"><defs><linearGradient id="ntn-l" x1="0" y1="0" x2="0" y2="121" gradientUnits="userSpaceOnUse">
      <stop offset="0" stop-color="#4656A8"/><stop offset=".55" stop-color="#4A70BE"/><stop offset="1" stop-color="#6AAEEA"/>
    </linearGradient>
    <linearGradient id="ntn-r" x1="0" y1="0" x2="0" y2="121" gradientUnits="userSpaceOnUse">
      <stop offset="0" stop-color="#5A60CC"/><stop offset=".45" stop-color="#4B4E9E"/><stop offset=".75" stop-color="#9A78A8"/><stop offset="1" stop-color="#F0C3A8"/>
    </linearGradient>
    <linearGradient id="ntn-d" x1="20" y1="20" x2="124" y2="101" gradientUnits="userSpaceOnUse">
      <stop offset="0" stop-color="#5E66C8"/><stop offset=".35" stop-color="#8A6CB8"/><stop offset=".7" stop-color="#C28A9E"/><stop offset="1" stop-color="#F4C7AA"/>
    </linearGradient>
    <linearGradient id="ntn-sheen" x1="20" y1="101" x2="124" y2="20" gradientUnits="userSpaceOnUse">
      <stop offset="0" stop-color="#FFFFFF" stop-opacity="0"/><stop offset=".45" stop-color="#FFFFFF" stop-opacity=".16"/><stop offset=".6" stop-color="#FFFFFF" stop-opacity="0"/>
    </linearGradient>
    <clipPath id="ntn-rleg"><rect x="104" y="0" width="40" height="121" rx="20"/></clipPath>
    <clipPath id="ntn-diag"><polygon points="7.71,35.78 111.71,116.78 136.29,85.22 32.29,4.22"/><circle cx="124" cy="101" r="20"/></clipPath>
    <filter id="ntn-blur" x="-30%" y="-30%" width="160%" height="160%"><feGaussianBlur stdDeviation="5"/></filter></defs><rect x="104" y="0" width="40" height="121" rx="20"  fill="url(#ntn-r)"/>
    <g clip-path="url(#ntn-rleg)" opacity=".6"><line x1="20" y1="20" x2="124" y2="101" stroke-width="40" stroke-linecap="round" stroke="#0B0A18" filter="url(#ntn-blur)" transform="translate(-2 -3)"/></g>
    <line x1="20" y1="20" x2="124" y2="101" stroke-width="40" stroke-linecap="round" stroke="url(#ntn-d)"/>
    <line x1="20" y1="20" x2="124" y2="101" stroke-width="40" stroke-linecap="round" stroke="url(#ntn-sheen)"/>
    <g clip-path="url(#ntn-diag)" opacity=".6"><rect x="0" y="0" width="40" height="121" rx="20" filter="url(#ntn-blur)" transform="translate(4 0)" fill="#0B0A18"/></g>
    <rect x="0" y="0" width="40" height="121" rx="20"  fill="url(#ntn-l)"/></g></svg>
